<?xml version="1.0" encoding="utf-8"?>
<!-- Generator: Adobe Illustrator 23.0.1, SVG Export Plug-In . SVG Version: 6.00 Build 0)  -->
<svg version="1.1" xmlns="http://www.w3.org/2000/svg" xmlns:xlink="http://www.w3.org/1999/xlink" x="0px" y="0px"
	 viewBox="0 0 1887 882" style="enable-background:new 0 0 1887 882;" xml:space="preserve">
<style type="text/css">
	.st0{stroke:#FFFFFF;stroke-width:3;stroke-miterlimit:10;}
	.st1{fill:#FFFFFF;}
	.st2{font-family:'Lobster1.3';}
	.st3{font-size:444.4318px;}
	.st4{font-size:901.3256px;}
	.st5{font-family:'Lobster1.4';}
	.st6{font-size:809.5861px;}
	.st7{font-size:251.0396px;}
</style>
<g id="Layer_4">
	<path class="st0" d="M1842.73,426.85c-2.92,12.73-4.53,26.07-8.99,38.08c-17.31,46.58-48.47,75.29-93.08,83.12
		c-47.49,8.33-86.39-10.58-115.4-52.94c-7.05-10.29-12.93-16.43-25.24-17.57c-28.01-2.59-51.71-17.93-73.37-37.22
		c-28.09-25.02-50.6-55.87-71.93-87.8c-22.62-33.86-44.35-68.47-67.15-102.18c-15.02-22.22-31.27-43.37-52.18-59.24
		c-12.32-9.36-25.67-15.06-40.67-15.75c-2.85-0.13-5.85-1.03-8.46-2.36c-6.57-3.38-10.57-11.5-9.6-18.57
		c0.99-7.25,6.71-13.06,14.48-13.75c13.76-1.23,27.13,1.48,40.26,5.99c28.93,9.93,53.22,28.81,76.24,49.98
		c30.69,28.23,57.32,61.2,85.52,92.35c18.86,20.83,38.52,40.83,58.63,60.14c12.22,11.73,26.58,20,42.99,22.49
		c1.79,0.27,3.6,0.36,6,0.6c0.11-2.79,0.28-5.19,0.29-7.59c0.02-22.91,0.37-45.83-0.15-68.73c-0.23-10.34,4.07-16.05,11.65-20.2
		c15.08-8.27,31.25-12.05,47.67-14.78c35.55-5.91,71.24-6.41,106.93-2.34c21.05,2.4,42.18,5.4,61.48,16.06
		c5.22,2.88,9.4,8.11,14.05,12.26C1842.73,333.54,1842.73,380.2,1842.73,426.85z M1731.55,319.11c10.7-1.28,31.06-3.19,51.25-6.42
		c7.64-1.22,15.15-4.86,22.23-8.56c5.26-2.75,5.16-7.52,0.14-10.69c-4.43-2.79-9.25-5.27-14.18-6.52
		c-41.69-10.61-83.7-10.26-125.68-2.94c-9.26,1.61-18.31,5.74-27.03,9.86c-4.75,2.24-4.61,6.96-0.13,9.93
		c4.22,2.79,8.84,5.14,13.56,6.59C1674.65,317.42,1698.23,318.23,1731.55,319.11z"/>
	<path class="st1" d="M1731.55,319.11c-33.32-0.88-56.91-1.7-79.84-8.75c-4.72-1.45-9.34-3.8-13.56-6.59
		c-4.48-2.97-4.62-7.69,0.13-9.93c8.72-4.12,17.77-8.25,27.03-9.86c41.99-7.31,84-7.67,125.68,2.94c4.93,1.25,9.75,3.73,14.18,6.52
		c5.02,3.17,5.12,7.94-0.14,10.69c-7.08,3.7-14.59,7.34-22.23,8.56C1762.61,315.92,1742.25,317.83,1731.55,319.11z"/>
</g>
<g id="Layer_6">
	<text transform="matrix(1 0 0 1 526.3965 826.6084)" class="st2 st3">avaliers</text>
	<text transform="matrix(1.0062 -0.3255 0.3078 0.9515 115.0701 909.6063)" class="st0 st2 st4">C</text>
</g>
<g id="Layer_5">
	<text transform="matrix(0.968 0.2508 -0.2508 0.968 179.1205 551.7713)" class="st0 st5 st6">T</text>
	<text transform="matrix(1 0 0 1 583.3301 508.5781)" class="st5 st7">abacaria</text>
</g>
</svg>
